<svg xmlns="http://www.w3.org/2000/svg" width="888" height="200" viewBox="0 0 888 200">
  <g fill="#2E3440">
    <path d="M466.56 127.463l-43.392-55.546V56.506l48.091 62.172h25.844V31.132h-43.465l-9.396-9.398h62.257v105.729z"/>
    <path d="M421.439 21.734l43.394 55.541v15.41l-48.092-62.168h-25.843v87.546h43.464l9.4 9.4H381.5V21.734z"/>
  </g>
  <path fill="none" d="M362.414 144.962H560.25v32.705H362.414z"/>
  <path fill="#88C0D0" d="M346.509 145.463h1.35l21.959 31.004h.09v-31.004h.9v32.129h-1.35L347.5 146.588h-.09v31.004h-.9v-32.129zm38.43 8.459c6.75 0 10.395 5.805 10.395 12.105 0 6.344-3.645 12.104-10.44 12.104-6.75 0-10.395-5.76-10.395-12.104 0-6.3 3.645-12.105 10.44-12.105zm0 23.308c6.165 0 9.495-5.354 9.495-11.203 0-5.76-3.33-11.205-9.495-11.205-6.255 0-9.54 5.445-9.54 11.205 0 5.85 3.285 11.203 9.54 11.203zm15.03.362h-.9v-23.129h.9v5.715h.09c.855-3.42 3.555-6.436 9.09-6.256v.9c-6.345-.314-9.18 4.635-9.18 9.674v13.096zm28.754-32.129h.9v32.129h-.9v-6.48h-.09c-1.17 4.051-4.545 7.02-9.27 7.02-6.12 0-9.855-5.084-9.855-12.059 0-6.48 3.465-12.15 9.855-12.15 4.905 0 8.189 2.836 9.27 7.02h.09v-15.48zm-9.36 9.359c-6.345 0-8.955 5.895-8.955 11.25 0 5.939 2.97 11.158 8.955 11.158 5.939 0 9.359-5.174 9.359-11.158.001-7.154-3.734-11.25-9.359-11.25z"/>
  <path fill="#2E3440" d="M452.123 154.373h4.725v2.385h-4.725v15.658c0 1.846.27 2.926 2.295 3.061.81 0 1.619-.045 2.43-.135v2.43c-.855 0-1.665.09-2.52.09-3.78 0-5.086-1.26-5.041-5.221v-15.883h-4.049v-2.385h4.049v-6.975h2.836v6.975zm8.818 0h2.61v3.914h.136c1.484-2.789 3.914-4.59 7.604-4.59 3.061 0 5.806 1.484 6.66 4.545 1.396-3.061 4.32-4.545 7.38-4.545 5.085 0 7.694 2.654 7.694 8.145v15.75h-2.835v-15.615c0-3.824-1.439-5.895-5.489-5.895-4.905 0-6.3 4.051-6.3 8.369v13.141h-2.835v-15.75c.045-3.15-1.26-5.76-4.859-5.76-4.905 0-6.885 3.689-6.93 8.549v12.961h-2.836v-23.219zm56.294 23.219h-2.609v-4.186h-.09c-1.485 3.105-4.545 4.859-8.01 4.859-5.85 0-8.145-3.42-8.145-8.818v-15.074h2.835v15.119c.135 4.184 1.709 6.389 6.209 6.389 4.86 0 6.975-4.59 6.975-9.314v-12.193h2.835v23.218zm11.701-12.061l-8.325-11.158h3.555l6.615 8.818 6.479-8.818h3.555l-8.369 11.113 9.045 12.105h-3.601l-7.289-9.766-7.155 9.766h-3.51l9-12.06z"/>
</svg>
